{"title":"Holly_and_Tara_live_hardcore_webcam_lesbian_show","uid":14150409,"size":290001015,"categoryP":"porn","categoryS":"movies","magnet":"?xt=urn:btih:b1779a4e6fa5288677b4085ac0fa9782e7e22d59&amp;dn=Holly_and_Tara_live_hardcore_webcam_lesbian_show&amp;tr=udp%3A%2F%2Ftracker.leechers-paradise.org%3A6969&amp;tr=udp%3A%2F%2Fzer0day.ch%3A1337&amp;tr=udp%3A%2F%2Fopen.demonii.com%3A1337&amp;tr=udp%3A%2F%2Ftracker.coppersurfer.tk%3A6969&amp;tr=udp%3A%2F%2Fexodus.desync.com%3A6969","seeders":0,"leechers":0,"uploader":"camcollector","files":1,"time":1459646682,"description":"Welcome to the first release from camcollector!\r\n\r\nThis video features Holly and Tara, who put on a great live lesbian show.\r\n\r\nVideo details:\r\n\r\nInput #0, matroska,webm, from 'hollytara.mkv':\r\n  Metadata:\r\n    CREATION_TIME   : 2016-04-02T21:45:56Z\r\n    ENCODER         : Lavf56.36.100\r\n  Duration: 01:13:37.21, start: 0.000000, bitrate: 525 kb/s\r\n    Stream #0:0: Video: h264 (Main), yuv420p(tv, smpte170m/smpte170m/bt709), 480x360 [SAR 1:1 DAR 4:3], 20 fps, 20 tbr, 1k tbn, 180k tbc (default)\r\n    Stream #0:1(und): Audio: aac (LC), 44100 Hz, mono, fltp (default)\r\n\r\nPreview images:\r\n \nhttp://spankworthy.com/video/34\r\n\r\nComments welcome, let me know which girls you like and I'll be sure to get more!","torrent":{"xt":"urn:btih:b1779a4e6fa5288677b4085ac0fa9782e7e22d59","amp;dn":"Holly_and_Tara_live_hardcore_webcam_lesbian_show","amp;tr":["udp%3A%2F%2Ftracker.leechers-paradise.org%3A6969","udp%3A%2F%2Fzer0day.ch%3A1337","udp%3A%2F%2Fopen.demonii.com%3A1337","udp%3A%2F%2Ftracker.coppersurfer.tk%3A6969","udp%3A%2F%2Fexodus.desync.com%3A6969"],"infoHash":"b1779a4e6fa5288677b4085ac0fa9782e7e22d59","infoHashBuffer":{"type":"Buffer","data":[177,119,154,78,111,165,40,134,119,180,8,90,192,250,151,130,231,226,45,89]},"announce":[],"urlList":[]}}